<svg width="512" height="481" viewBox="0 0 512 481" fill="none" xmlns="http://www.w3.org/2000/svg">
  <rect x="156" y="60" rx="48" ry="48" width="200" height="160" fill="#57BBDD"/>
  <rect x="248" y="20" width="16" height="40" rx="8" fill="#57BBDD"/>
  <circle cx="256" cy="16" r="12" fill="#57BBDD"/>
  <circle cx="216" cy="136" r="16" fill="white"/>
  <circle cx="296" cy="136" r="16" fill="white"/>
  <circle cx="216" cy="136" r="8" fill="#57BBDD"/>
  <circle cx="296" cy="136" r="8" fill="#57BBDD"/>
  <path d="M220 176 Q256 196 292 176" stroke="white" stroke-width="10" fill="none" stroke-linecap="round"/>
  <rect x="176" y="232" rx="40" ry="40" width="160" height="140" fill="#57BBDD"/>
  <text x="256" y="312" text-anchor="middle" font-size="48" font-weight="bold" fill="white">₹</text>
  <rect x="116" y="252" width="60" height="24" rx="12" fill="#57BBDD"/>
  <rect x="336" y="252" width="60" height="24" rx="12" fill="#57BBDD"/>
  <rect x="208" y="372" width="32" height="64" rx="16" fill="#57BBDD"/>
  <rect x="272" y="372" width="32" height="64" rx="16" fill="#57BBDD"/>
</svg>
